<svg width="138" height="138" viewBox="0 0 138 138" fill="none" xmlns="http://www.w3.org/2000/svg">
<path d="M33.3996 85.1999C33.3996 92.2999 27.5996 98.0999 20.4996 98.0999C13.3996 98.0999 7.59961 92.2999 7.59961 85.1999C7.59961 78.0999 13.3996 72.2999 20.4996 72.2999H33.3996V85.1999Z" fill="#E01E5A"/>
<path d="M39.8994 85.1999C39.8994 78.0999 45.6994 72.2999 52.7994 72.2999C59.8994 72.2999 65.6994 78.0999 65.6994 85.1999V117.5C65.6994 124.6 59.8994 130.4 52.7994 130.4C45.6994 130.4 39.8994 124.6 39.8994 117.5V85.1999Z" fill="#E01E5A"/>
<path d="M52.7994 33.4C45.6994 33.4 39.8994 27.6 39.8994 20.5C39.8994 13.4 45.6994 7.59998 52.7994 7.59998C59.8994 7.59998 65.6994 13.4 65.6994 20.5V33.4H52.7994Z" fill="#36C5F0"/>
<path d="M52.7996 39.9C59.8996 39.9 65.6996 45.7 65.6996 52.8C65.6996 59.9 59.8996 65.7 52.7996 65.7H20.4996C13.3996 65.7 7.59961 59.9 7.59961 52.8C7.59961 45.7 13.3996 39.9 20.4996 39.9H52.7996Z" fill="#36C5F0"/>
<path d="M104.6 52.8C104.6 45.7 110.4 39.9 117.5 39.9C124.6 39.9 130.4 45.7 130.4 52.8C130.4 59.9 124.6 65.7 117.5 65.7H104.6V52.8Z" fill="#2EB67D"/>
<path d="M98.0998 52.8C98.0998 59.9 92.2998 65.7 85.1998 65.7C78.0998 65.7 72.2998 59.9 72.2998 52.8V20.5C72.2998 13.4 78.0998 7.59998 85.1998 7.59998C92.2998 7.59998 98.0998 13.4 98.0998 20.5V52.8Z" fill="#2EB67D"/>
<path d="M85.1998 104.6C92.2998 104.6 98.0998 110.4 98.0998 117.5C98.0998 124.6 92.2998 130.4 85.1998 130.4C78.0998 130.4 72.2998 124.6 72.2998 117.5V104.6H85.1998Z" fill="#ECB22E"/>
<path d="M85.1998 98.0999C78.0998 98.0999 72.2998 92.2999 72.2998 85.1999C72.2998 78.0999 78.0998 72.2999 85.1998 72.2999H117.5C124.6 72.2999 130.4 78.0999 130.4 85.1999C130.4 92.2999 124.6 98.0999 117.5 98.0999H85.1998Z" fill="#ECB22E"/>
</svg>
